<?xml version="1.0" encoding="UTF-8" standalone="no"?>
<!DOCTYPE svg PUBLIC "-//W3C//DTD SVG 1.1//EN" "http://www.w3.org/Graphics/SVG/1.1/DTD/svg11.dtd">
<svg version="1.1" xmlns="http://www.w3.org/2000/svg" xmlns:xlink="http://www.w3.org/1999/xlink" preserveAspectRatio="xMidYMid meet" viewBox="0 0 640 640" width="640" height="640"><defs><path d="M613.27 66.72C574.14 105.86 555.03 102.71 530.84 98.73C496.76 93.12 466.38 92.65 417.28 138.63C418.91 140.14 420.53 141.65 422.11 143.23C423.36 144.47 433.3 154.42 434.54 155.66C436.22 157.33 437.82 159.06 439.41 160.8C480.81 122.25 501.74 125.69 525.75 129.64C553.48 134.2 584.91 139.38 635.41 88.87C641.53 82.75 641.53 72.84 635.41 66.72C629.3 60.61 619.38 60.61 613.27 66.72Z" id="f1Q6sDjyHI"></path><path d="M439.4 160.79L439.38 160.77L439.4 160.79L439.4 160.79Z" id="izK6C4BTi"></path><path d="M374.75 251.79C374.75 264.81 369.68 277.06 360.46 286.27C359.12 287.61 352.43 294.31 340.37 306.36C396.42 362.41 427.56 393.55 433.79 399.78C495.92 328.82 498.72 225.56 439.4 160.79C436.72 163.29 433.95 165.96 431.09 168.82C427 172.91 406.54 193.37 369.72 230.19C373.07 239.51 374.75 246.71 374.75 251.79Z" id="eQidBFiq3"></path><path d="M343.86 269.66C348.63 264.88 351.26 258.54 351.26 251.79C351.26 245.03 348.63 238.69 343.85 233.91C339.08 229.14 332.73 226.51 325.98 226.51C319.23 226.51 312.88 229.14 308.11 233.91C303.5 238.52 266.64 275.38 262.03 279.99C257.26 284.76 254.63 291.11 254.63 297.86C254.63 304.61 257.26 310.96 262.03 315.74C266.8 320.51 273.15 323.14 279.9 323.14C286.66 323.14 293.01 320.51 297.78 315.73C307 306.52 339.25 274.27 343.86 269.66Z" id="ceqoCNkB"></path><path d="M271.4 237.4C283.46 225.34 290.16 218.64 291.5 217.3C300.71 208.09 312.95 203.02 325.98 203.02C333.6 203.02 340.94 204.77 347.57 208.05C353.71 201.91 402.81 152.81 408.94 146.67C411.78 143.83 414.55 141.17 417.27 138.63C386.98 110.74 347.11 95.43 304.21 95.43C258.72 95.44 213.42 112.98 177.96 143.96C190.42 156.42 221.57 187.56 271.4 237.4Z" id="b2lqK7nRT2"></path><path d="M279.91 346.63C266.88 346.63 254.63 341.56 245.42 332.35C236.21 323.13 231.14 310.89 231.14 297.86C231.14 284.84 236.22 272.59 245.43 263.38C245.68 263.12 246.96 261.85 249.26 259.55L155.49 165.77C96.77 224.49 64.15 257.11 57.62 263.64C-15.14 336.4 -19.59 450.35 47.7 517.64C48.94 518.88 58.88 528.83 60.13 530.07C90.95 560.89 132.82 577.86 178.03 577.86C227.85 577.86 277.45 556.83 314.13 520.15C320.65 513.62 353.28 481 411.99 422.28L318.22 328.51L314.39 332.34C300.08 341.87 288.59 346.63 279.91 346.63Z" id="bkjC7tX4Q"></path></defs><g><g><g><use xlink:href="#f1Q6sDjyHI" opacity="1" fill="#ffffff" fill-opacity="1"></use><g><use xlink:href="#f1Q6sDjyHI" opacity="1" fill-opacity="0" stroke="#000000" stroke-width="1" stroke-opacity="0"></use></g></g><g><use xlink:href="#izK6C4BTi" opacity="1" fill="#ffffff" fill-opacity="1"></use><g><use xlink:href="#izK6C4BTi" opacity="1" fill-opacity="0" stroke="#000000" stroke-width="1" stroke-opacity="0"></use></g></g><g><use xlink:href="#eQidBFiq3" opacity="1" fill="#ffffff" fill-opacity="1"></use><g><use xlink:href="#eQidBFiq3" opacity="1" fill-opacity="0" stroke="#000000" stroke-width="1" stroke-opacity="0"></use></g></g><g><use xlink:href="#ceqoCNkB" opacity="1" fill="#ffffff" fill-opacity="1"></use><g><use xlink:href="#ceqoCNkB" opacity="1" fill-opacity="0" stroke="#000000" stroke-width="1" stroke-opacity="0"></use></g></g><g><use xlink:href="#b2lqK7nRT2" opacity="1" fill="#ffffff" fill-opacity="1"></use><g><use xlink:href="#b2lqK7nRT2" opacity="1" fill-opacity="0" stroke="#000000" stroke-width="1" stroke-opacity="0"></use></g></g><g><use xlink:href="#bkjC7tX4Q" opacity="1" fill="#ffffff" fill-opacity="1"></use><g><use xlink:href="#bkjC7tX4Q" opacity="1" fill-opacity="0" stroke="#000000" stroke-width="1" stroke-opacity="0"></use></g></g></g></g></svg>