<svg xmlns="http://www.w3.org/2000/svg" xmlns:xlink="http://www.w3.org/1999/xlink" version="1.1" x="0px" y="0px" viewBox="0 0 32 40" enable-background="new 0 0 32 32" xml:space="preserve"><g><path d="M4.8,31.5h23.3c0.5,0,1-0.4,1-1V20c0-0.5-0.4-1-1-1H4.8c-0.5,0-1,0.4-1,1v10.6C3.9,31.1,4.3,31.5,4.8,31.5z"/><polygon points="12.6,12.3 6,17.6 12,17.6 18.7,12.3  "/><path d="M4.8,12.3c-0.5,0-1,0.4-1,1v3.4c0,0.2,0.1,0.5,0.3,0.6l6.2-5H4.8z"/><polygon points="20.9,12.3 14.3,17.6 20.3,17.6 27,12.3  "/><path d="M22.6,17.6h5.5c0.5,0,1-0.4,1-1v-3.4c0-0.2-0.1-0.5-0.3-0.6L22.6,17.6z"/><polygon points="4.8,6.1 12.6,9.6 18.6,8 10.9,4.5  "/><path d="M2.9,7.3l1,3.8c0.1,0.3,0.4,0.5,0.7,0.5c0.1,0,0.1,0,0.2,0l5.6-1.4L3,6.8C2.9,7,2.9,7.1,2.9,7.3z"/><path d="M28.3,4.8l-1-3.8c0-0.2-0.2-0.3-0.3-0.4c-0.2-0.1-0.4-0.1-0.5-0.1L20.9,2l7.4,3.3C28.3,5.1,28.4,5,28.3,4.8z"/><polygon points="18.7,2.5 13.1,4 20.8,7.5 26.4,6  "/></g></svg>