<svg xmlns="http://www.w3.org/2000/svg" xmlns:xlink="http://www.w3.org/1999/xlink" version="1.1" x="0px" y="0px" viewBox="0 0 100 100" enable-background="new 0 0 100 100" xml:space="preserve"><path d="M42.025,26.379c-0.434-1.271-0.657-2.599-0.657-3.94c0-1.346,0.223-2.679,0.657-3.953c0.414-1.207,1.051-2.337,1.861-3.328  c0.844-1.009,1.873-1.836,3.051-2.426c1.125-0.57,2.375-0.865,3.64-0.865s2.506,0.295,3.646,0.865  c1.164,0.59,2.207,1.417,3.041,2.426c0.814,0.991,1.447,2.121,1.861,3.328c0.434,1.274,0.658,2.607,0.658,3.953  c0,1.342-0.225,2.67-0.658,3.94c-0.09,0.283-0.199,0.553-0.316,0.827c-2.147,4.919-1.684,10.589,1.24,15.09  c0.494,0.768,0.944,1.565,1.338,2.393c1.223,2.594,2.125,5.324,2.678,8.13c0.688,3.483,1.025,7.027,1.025,10.58  s-0.338,7.096-1.025,10.572c-0.553,2.81-1.455,5.543-2.678,8.125c-1.229,2.599-2.992,4.911-5.173,6.788H44.933  c-2.177-1.877-3.941-4.189-5.165-6.788c-1.227-2.582-2.126-5.315-2.675-8.125c-0.691-3.477-1.033-7.02-1.033-10.572  s0.342-7.097,1.033-10.58c0.549-2.806,1.448-5.536,2.675-8.13c0.388-0.827,0.84-1.625,1.333-2.393  c2.932-4.501,3.392-10.171,1.24-15.09C42.224,26.932,42.123,26.662,42.025,26.379z M54.754,32.065h-8.357  c0.177,2.207-0.029,4.434-0.637,6.568h9.627C54.791,36.499,54.576,34.272,54.754,32.065z"/></svg>