# Blender v2.76 (sub 0) OBJ File: 'rgb_cube.blend'
# www.blender.org
mtllib rgb_cube.mtl
o Cube
v 1.000000 -1.000000 -1.000000
v 1.000000 -1.000000 1.000000
v -1.000000 -1.000000 1.000000
v -1.000000 -1.000000 -1.000000
v 1.000000 1.000000 -0.999999
v 0.999999 1.000000 1.000001
v -1.000000 1.000000 1.000000
v -1.000000 1.000000 -1.000000
vn -0.000000 -0.000000 1.000000
vn 0.000000 0.000000 -1.000000
vn 0.000000 -1.000000 0.000000
vn 0.000000 1.000000 0.000000
vn 1.000000 0.000000 0.000000
vn -1.000000 -0.000000 -0.000000
usemtl Red
s off
f 2//1 6//1 7//1 3//1
f 5//2 1//2 4//2 8//2
usemtl Green
f 1//3 2//3 3//3 4//3
f 5//4 8//4 7//4 6//4
usemtl Blue
f 1//5 5//5 6//5 2//5
f 3//6 7//6 8//6 4//6
